<?xml version="1.0" encoding="UTF-8" standalone="no"?>
<!-- Created with Inkscape (http://www.inkscape.org/) -->

<svg
   width="106.98961mm"
   height="90.499481mm"
   viewBox="0 0 106.98961 90.499481"
   version="1.1"
   id="svg1"
   inkscape:version="1.3.2 (091e20e, 2023-11-25)"
   sodipodi:docname="logo_vector2.svg"
   xmlns:inkscape="http://www.inkscape.org/namespaces/inkscape"
   xmlns:sodipodi="http://sodipodi.sourceforge.net/DTD/sodipodi-0.dtd"
   xmlns="http://www.w3.org/2000/svg"
   xmlns:svg="http://www.w3.org/2000/svg">
  <sodipodi:namedview
     id="namedview1"
     pagecolor="#505050"
     bordercolor="#eeeeee"
     borderopacity="1"
     inkscape:showpageshadow="0"
     inkscape:pageopacity="0"
     inkscape:pagecheckerboard="0"
     inkscape:deskcolor="#505050"
     inkscape:document-units="mm"
     inkscape:zoom="0.96468978"
     inkscape:cx="261.74217"
     inkscape:cy="112.47139"
     inkscape:window-width="1712"
     inkscape:window-height="1040"
     inkscape:window-x="0"
     inkscape:window-y="39"
     inkscape:window-maximized="1"
     inkscape:current-layer="layer1" />
  <defs
     id="defs1" />
  <g
     inkscape:label="Layer 1"
     inkscape:groupmode="layer"
     id="layer1"
     transform="translate(-52.153279,-57.814867)">
    <path
       d="m 101.3858,116.81032 c -0.0755,0.20317 -0.46582,1.72907 -0.55471,2.06682 -0.18383,0.69813 -0.37009,1.37519 -0.55028,2.06916 -0.360465,1.38846 -0.753105,2.76357 -1.104465,4.15567 -0.51629,2.04514 -1.11245,4.16997 -1.65458,6.22456 -0.0929,0.35214 -0.18366,0.68903 -0.27489,1.03536 -0.0506,0.1919 -0.26742,0.9007 -0.26612,1.03926 0.64766,0.0194 1.35637,-0.0177 2.01661,-0.0206 0.67463,-0.003 1.352475,-0.0147 2.030825,-0.0157 0.67004,-8e-4 1.35439,-0.0205 2.02945,-0.0222 0.27965,-5.2e-4 1.90458,-0.0311 2.01965,-0.004 l 0.21834,14.9757 c 0.13458,-0.22346 2.11191,-4.80324 2.2562,-5.12157 0.77132,-1.70192 1.47899,-3.43854 2.25387,-5.14645 0.18981,-0.41848 0.38024,-0.84546 0.55921,-1.27408 0.18262,-0.43704 0.38033,-0.85526 0.56416,-1.29212 0.53424,-1.27001 1.16161,-2.59543 1.69569,-3.87081 0.35604,-0.85058 0.75935,-1.71832 1.13161,-2.57861 l 0.55904,-1.2903 -6.20106,0.035 4.74375,-13.11379 z"
       style="fill:#ffffff;fill-rule:evenodd;stroke-width:0.867135"
       id="path4" />
    <g
       id="Layer1000"
       transform="matrix(0.86713633,0,0,0.86713633,-261.0992,-166.13305)">
      <path
         d="m 398.5765,277.071 c 0,0.997 0.3707,2.9383 0.5424,4.0157 0.6021,3.7803 1.1872,7.5856 1.8044,11.356 0.2059,1.2582 0.4195,2.5181 0.6001,3.7837 0.3478,2.4365 1.5184,4.0024 3.6598,5.1255 0.9044,0.4742 2.2399,0.9608 3.4363,0.9608 h 0.5035 c 2.451,0 4.4452,-0.6942 5.9542,-1.8669 1.3759,-1.0694 2.6791,-2.6506 2.6791,-5.2995 0,-1.0193 -0.0887,-2.0534 -0.1325,-3.0692 -0.2216,-5.1383 -0.3844,-10.2944 -0.581,-15.4351 -0.0688,-1.8012 -0.4526,-2.801 -1.5563,-4.0464 -0.3465,-0.391 -0.8758,-0.7772 -1.3263,-1.0645 -0.9625,-0.614 -2.3592,-1.0868 -3.5168,-1.2909 -2.5503,-0.4497 -5.7715,0.0277 -8.0025,1.2812 -0.3464,0.1947 -0.6727,0.3887 -0.9748,0.6105 -0.1669,0.1226 -0.2975,0.2166 -0.4591,0.3458 -0.7424,0.5939 -1.4171,1.2689 -1.8893,2.113 -0.3645,0.6515 -0.7412,1.5737 -0.7412,2.4803 z m 5.4916,-2.5427 c 0,0.8114 0.0774,1.2516 0.1852,2.0519 0.0804,0.5967 0.1544,1.1827 0.2267,1.7878 l 2.1818,18.0066 c 0.1383,1.151 0.2057,2.3806 0.7315,3.2952 0.4996,0.8691 1.2263,1.5836 2.5857,1.5836 0.4556,0 0.9004,-0.11 1.2775,-0.2726 1.1555,-0.4984 1.6191,-1.7847 1.6191,-3.0906 0,-0.8728 -0.1187,-1.8167 -0.185,-2.6932 -0.0675,-0.8919 -0.1307,-1.7955 -0.196,-2.6932 -0.1292,-1.7767 -0.2846,-3.5659 -0.4123,-5.3434 l -0.707,-9.3871 c -0.0334,-0.423 -0.0485,-0.9466 -0.1127,-1.35 -0.2084,0.0943 -0.4289,0.3051 -0.8974,0.454 -0.9577,0.3043 -2.0221,0.257 -2.9792,-0.0588 -0.2238,-0.0738 -0.4389,-0.2171 -0.565,-0.365 -0.0876,-0.1026 -0.3372,-0.4601 -0.2476,-0.6498 0.0403,-0.0384 0.7472,0.0739 1.0392,0.0739 1.3779,0 3.0795,-0.8891 3.0795,-2.5828 0,-0.7461 -0.4671,-1.1658 -0.8487,-1.4509 -0.6475,-0.4838 -1.1175,-0.6082 -1.9791,-0.6082 -0.7632,0 -1.4763,0.1675 -2.1261,0.5115 -0.9875,0.5227 -1.6701,1.646 -1.6701,2.7811 z"
         style="fill:#9e74fd;fill-rule:evenodd"
         id="path6" />
      <path
         d="m 442.395,270.9937 c -0.055,0.1173 0.1729,0.5389 0.2267,0.6999 0.5197,1.5568 0.4077,3.2998 0.1914,4.9053 -0.0793,0.5889 -0.1565,1.1692 -0.2309,1.7587 l -1.3564,10.572 c -0.3086,2.3462 -0.5695,4.6992 -0.8961,7.0387 -0.2877,2.0614 -0.5097,4.072 -1.571,5.879 -0.065,0.1107 -0.1466,0.2164 -0.1934,0.3328 1.2668,0.2233 2.603,0.3562 3.8829,0.5471 2.3953,0.3573 5.1343,0.8541 7.4979,1.367 0.6021,0.1306 1.2099,0.2585 1.8138,0.4 0.2911,0.0681 1.6504,0.4221 1.8464,0.3879 0.117,-0.0643 0.157,-0.5729 0.1795,-0.718 l 0.3896,-2.4068 c 0.0856,-0.5283 0.1743,-1.0514 0.2619,-1.5785 0.022,-0.132 0.0443,-0.2545 0.0624,-0.388 0.0245,-0.1798 0.0273,-0.2743 -0.1194,-0.3325 -0.0505,-0.02 -0.6947,-0.1952 -0.7324,-0.1987 -0.2525,-0.0232 -0.3629,0.2486 -0.4577,0.4283 -0.356,0.6748 -0.5587,1.145 -1.0283,1.7672 -0.522,0.6919 -1.2761,1.3458 -2.5331,1.3458 -0.4983,0 -2.5921,-0.4205 -3.103,-0.5731 -0.8963,-0.2677 -1.7506,-0.9108 -1.7506,-1.9963 0,-0.2225 0.6075,-3.7836 0.6589,-4.0914 0.2293,-1.3744 0.4528,-2.7367 0.6813,-4.1071 l 1.0265,-6.1459 c 0.0681,-0.4085 0.2643,-1.7328 0.3606,-2.0273 0.2081,-0.0279 2.1579,0.8867 2.5099,1.0333 1.0732,0.4469 1.5931,0.8615 2.9142,0.8615 0.7574,0 1.0709,-0.2701 1.3621,-0.7246 0.1805,-0.2818 0.5923,-1.1507 0.4808,-1.5732 -0.1533,-0.0604 -1.5333,-0.1128 -1.8443,-0.1392 -0.9799,-0.0831 -4.6651,-0.495 -5.186,-0.7973 -0.03,-0.1992 0.379,-2.4627 0.4423,-2.8688 0.1025,-0.6583 0.9805,-6.0881 1.0508,-6.3494 0.0779,-0.2894 0.3515,-0.1708 0.5932,-0.1278 1.9102,0.3398 5.2117,0.8122 6.5666,1.689 1.0679,0.6911 1.2412,1.5598 1.3513,2.7782 0.0595,0.6594 0.0185,0.3869 0.9776,0.6834 0.3414,0.1055 0.3702,-0.0577 0.4616,-0.3097 0.0912,-0.2516 1.2967,-3.5453 1.3002,-3.6397 0.009,-0.2483 -0.3314,-0.2534 -0.5343,-0.2967 -2.0654,-0.4403 -4.0082,-0.8913 -6.1322,-1.3217 -1.8621,-0.3774 -3.7408,-0.6551 -5.6207,-0.9762 -0.6434,-0.1099 -5.5537,-0.8782 -5.8006,-0.7872 z"
         style="fill:#9e74fd;fill-rule:evenodd"
         id="path8" />
      <path
         d="m 382.2198,303.7021 c -0.1287,-0.0402 -0.1186,-0.1182 -0.2446,-0.34 -0.0738,-0.1299 -0.1417,-0.2656 -0.2142,-0.3906 l -1.2668,-2.2822 c -0.4767,-0.927 -1.1833,-2.0915 -1.7019,-3.0559 l -1.7262,-3.0315 c -0.5824,-0.9778 -1.159,-2.0501 -1.753,-3.0048 -0.5667,-0.9107 -1.1965,-2.0081 -1.7717,-2.9612 l -2.7154,-4.409 c -0.3092,-0.4975 -0.6282,-0.9689 -0.9125,-1.4795 -0.6439,-1.1564 -1.065,-2.218 -0.6516,-3.7532 -0.1282,0.0206 -0.3652,0.1208 -0.4928,0.1675 -1.157,0.4229 -2.4247,0.8523 -3.5493,1.3097 -0.6564,0.267 -1.3359,0.5189 -1.989,0.7801 l -1.4876,0.602 c -0.1512,0.06 -0.3556,0.1343 -0.4938,0.2086 0.0622,0.065 0.3066,0.1944 0.4062,0.2576 0.473,0.3 0.7802,0.5417 1.1993,0.8921 0.066,0.0552 0.0976,0.108 0.1614,0.1646 0.0712,0.0632 0.1136,0.1058 0.1804,0.1724 0.1086,0.1083 0.2418,0.2418 0.3396,0.366 0.0526,0.0668 0.1078,0.1205 0.163,0.1893 0.4758,0.5921 0.8564,1.1911 1.3054,1.8162 l 1.419,2.0808 c 0.366,0.5559 0.7442,1.0973 1.1148,1.6532 l 1.6584,2.5215 c 0.1729,0.2721 0.3581,0.572 0.5461,0.8384 0.1892,0.2682 0.3628,0.5628 0.5428,0.8423 l 0.8222,1.2659 c 0.2745,0.416 0.5318,0.861 0.8157,1.2747 0.495,0.7211 1.1109,1.7726 1.6148,2.564 0.4062,0.6381 1.2289,1.9553 1.5896,2.5893 0.1651,0.2903 0.3473,0.5705 0.5229,0.8614 0.1765,0.2924 0.3441,0.5728 0.5198,0.8655 0.3485,0.5802 0.7001,1.1622 1.0448,1.7495 0.3458,0.5891 0.691,1.1544 1.0414,1.7523 0.238,0.4059 0.2972,0.486 0.3358,1.0535 0.0497,0.7292 -0.0742,1.0565 -0.0653,1.2688 2.0945,-0.7571 4.3147,-1.5293 6.5222,-2.1834 -0.047,-0.0808 -0.1657,-0.1916 -0.2489,-0.2636 -0.1925,-0.1668 -0.5712,-0.6975 -0.7304,-0.9309 -0.205,-0.3007 -0.2203,-0.4148 -0.2568,-0.8514 l -0.4275,-5.1194 c -0.2187,-2.7611 -0.3651,-5.535 -0.5173,-8.3068 -0.1953,-3.5572 -0.2898,-7.1352 -0.357,-10.6995 -0.0137,-0.7302 0.008,-1.4647 -0.0177,-2.1901 -0.0466,-1.2936 -0.1211,-1.6603 0.3008,-2.915 0.0886,-0.2636 0.2379,-0.5754 0.3012,-0.8143 -0.1647,-0.0232 -2.0496,0.5035 -2.4905,0.6125 -0.8686,0.2148 -0.0473,0.4164 0.1636,2.2463 0.0736,0.6387 0.0166,1.4145 0.0358,2.0789 0.0784,2.7174 0.149,5.4499 0.2978,8.1566 0.1464,2.6621 0.2541,5.3224 0.4622,7.9806 l 0.4837,5.8415 c 0.0577,0.6193 0.1551,1.346 0.1711,1.9587 z"
         style="fill:#9e74fd;fill-rule:evenodd"
         id="path10" />
      <path
         d="m 467.981,277.7558 c 0.9518,0 1.6029,0.1347 2.5049,0.3843 0.1793,0.0496 0.3379,0.0941 0.5111,0.143 0.5472,0.1543 0.4878,0.114 0.0951,1.2935 -0.2207,0.6628 -0.4406,1.3327 -0.6387,2.0051 -0.2001,0.679 -0.4328,1.3447 -0.6407,2.0275 -0.204,0.6698 -0.4122,1.3447 -0.6387,2.0054 -0.2279,0.6645 -0.4142,1.3578 -0.6393,2.0281 -0.2225,0.6628 -0.4419,1.3349 -0.64,2.0044 -0.3843,1.2986 -0.8887,2.7235 -1.2805,4.031 -0.201,0.6707 -0.4273,1.3585 -0.6507,2.0183 -0.4491,1.3268 -0.8335,2.716 -1.2638,4.0474 -0.4346,1.3445 -0.8534,2.6786 -1.3434,3.9684 -0.2459,0.6471 -0.5256,1.2577 -0.856,1.8124 -0.1783,0.2994 -0.3491,0.5381 -0.5405,0.7943 l -0.2948,0.3605 c -0.0896,0.0977 -0.285,0.2308 -0.2967,0.3712 0.1069,0.076 1.3786,0.4601 1.6227,0.5366 1.2573,0.3942 2.7946,0.9221 4.032,1.3808 0.2108,0.0782 0.6117,0.2361 0.8154,0.2777 -0.0981,-0.5565 -0.1041,-0.4458 -0.1041,-1.0087 0,-1.8959 0.8038,-3.84 1.4069,-5.5606 l 4.3141,-11.9993 c 0.4019,-1.1453 0.8263,-2.2826 1.2345,-3.4231 l 2.3085,-6.4263 c 0.053,-0.1492 0.0801,-0.3351 0.1965,-0.4193 0.202,-0.004 1.1647,0.4229 1.3995,0.5233 1.2088,0.5169 2.7995,1.4364 2.7995,3.0119 0,1.6915 -0.2173,1.4514 0.4608,1.7086 0.8052,0.3056 0.5871,0.5052 1.185,-0.5967 0.188,-0.3464 1.5601,-2.7562 1.5865,-2.8682 0.049,-0.2074 -0.2143,-0.2472 -0.3788,-0.3109 l -1.5957,-0.6451 c -2.8672,-1.1404 -5.7245,-2.1895 -8.7194,-3.1879 -2.9815,-0.9938 -6.0551,-1.9237 -9.1587,-2.7497 -0.3216,-0.0856 -0.3157,0.01 -0.3554,0.3049 l -0.2793,1.9568 c -0.0645,0.437 -0.1281,0.8584 -0.195,1.2944 -0.0215,0.1399 -0.0962,0.5129 -0.0885,0.6369 0.008,0.1346 0.0653,0.1443 0.1938,0.1821 1.0384,0.3057 0.9645,0.3526 1.2784,-0.09 0.4278,-0.6031 0.7792,-1.2247 1.4245,-1.5466 0.3315,-0.1653 0.8138,-0.2764 1.229,-0.2764 z"
         style="fill:#9e74fd;fill-rule:evenodd"
         id="path12" />
      <path
         d="m 422.0206,295.6497 c 0,1.392 -0.0699,3.117 -0.4939,4.4476 -0.0637,0.1998 -0.1213,0.3924 -0.1945,0.5861 -0.0657,0.1737 -0.1883,0.4168 -0.2346,0.5803 l 3.3323,0.005 c 3.0337,6e-4 7.3243,0.2262 10.4443,0.5305 0.2425,0.0236 1.2947,0.1648 1.4459,0.1039 0.1026,-0.0662 0.0778,-0.4452 0.0809,-0.5518 0.006,-0.2065 0.014,-0.4265 0.0198,-0.6256 0.0356,-1.2229 0.1156,-2.6121 0.1156,-3.7922 0,-0.2188 -0.004,-0.3805 -0.1956,-0.4569 -0.1181,-0.047 -0.494,-0.0836 -0.6335,-0.0836 -0.3205,0 -0.3761,0.2638 -0.4734,0.5197 -0.2603,0.6847 -0.5531,1.4696 -0.9426,2.0539 -0.4707,0.7062 -1.2678,1.4492 -2.5616,1.4492 l -2.4642,-0.1391 c -0.8818,-0.1017 -1.795,-0.4681 -2.159,-1.3142 -0.1523,-0.354 -0.1667,-0.5854 -0.1499,-0.9974 l 0.2217,-6.772 c 0.0424,-1.502 0.1038,-3.0089 0.1447,-4.5056 0.0823,-3.0128 0.1939,-6.0139 0.2696,-9.012 0.0573,-2.2645 -0.073,-5.4974 1.2354,-7.4834 0.0869,-0.1319 0.1621,-0.2394 0.2401,-0.3698 l -8.4304,0.008 c 0.0549,0.1324 0.3429,0.5263 0.5707,1.0971 0.1629,0.4084 0.2794,0.8699 0.3799,1.3307 0.2381,1.092 0.2507,1.967 0.2887,3.1009 0.0372,1.1103 0.0297,2.2623 0.0295,3.3734 -10e-4,5.6353 0.1141,11.2921 0.1141,16.9172 z"
         style="fill:#9e74fd;fill-rule:evenodd"
         id="path14" />
      <path
         d="m 385.3246,274.2514 c 0.0351,0.0519 0.0103,0.0195 0.0629,0.072 0.031,0.0309 0.0468,0.0424 0.0773,0.0734 l 0.4176,0.4891 c 0.5143,0.6425 0.9641,1.5567 1.246,2.3538 0.4275,1.2084 0.7181,2.4796 1.0035,3.7798 0.2844,1.2953 0.6028,2.5889 0.9007,3.8822 l 2.7065,11.6688 c 0.5174,2.2569 1.3113,4.8847 1.0894,7.2274 -0.0359,0.3797 -0.1118,0.6867 -0.168,1.044 1.6749,-0.3691 3.2427,-0.7404 4.9381,-1.0795 l 1.678,-0.3338 -0.4597,-0.6957 c -0.1381,-0.2461 -0.2893,-0.4906 -0.4119,-0.7712 -0.8395,-1.9221 -1.0663,-3.526 -1.4609,-5.6138 -0.4978,-2.6339 -1.039,-5.2545 -1.525,-7.8892 -0.4854,-2.6315 -0.9945,-5.2551 -1.5332,-7.8831 -0.2686,-1.3101 -0.5069,-2.6501 -0.7117,-3.9946 -0.1764,-1.1575 -0.158,-2.0757 0.0949,-3.2045 0.0841,-0.3755 0.1738,-0.5632 0.308,-0.8857 -0.8802,0.0918 -8.0214,1.6317 -8.2525,1.7606 z"
         style="fill:#9e74fd;fill-rule:evenodd"
         id="path16" />
    </g>
    <g
       id="g1"
       transform="translate(-9.5902001)">
      <path
         d="m 82.658444,62.691391 h 1.96822 c 0.8008,0 1.45818,-0.318413 1.69308,-0.889074 0.13346,-0.324223 0.1312,-0.762215 -0.0188,-1.072563 -0.14889,-0.307832 -0.36454,-0.438076 -0.7075,-0.57621 0.0467,-0.06738 0.59989,-0.279826 0.59989,-1.090774 0,-0.891677 -0.84598,-1.156155 -1.71815,-1.156155 h -1.81734 z m 1.27018,-2.917915 h 0.45923 c 0.32284,0 0.55124,-0.142037 0.56633,-0.449437 0.017,-0.347028 -0.2402,-0.442326 -0.56633,-0.442326 h -0.45923 z m -2.7e-4,1.942819 c 0.52835,0 1.23316,0.09591 1.24668,-0.514128 0.006,-0.289708 -0.14489,-0.416308 -0.40564,-0.46877 -0.23569,-0.04743 -0.58332,-0.02853 -0.83497,-0.02853 z"
         style="fill:#ffffff;fill-rule:evenodd;stroke-width:0.867135"
         id="path19" />
      <path
         d="m 143.65636,62.691391 h 1.27009 l 9e-5,-1.140024 c 0,-0.08498 0.419,-0.64966 0.45351,-0.676021 0.0661,0.06087 0.66501,1.129443 0.79811,1.362186 l 0.19849,0.347028 c 0.003,0.0069 0.032,0.05472 0.0322,0.05497 0.0399,0.04995 0.0399,0.05186 0.10639,0.05186 l 1.30348,-0.0043 c -0.10484,-0.202821 -0.23907,-0.40573 -0.36315,-0.613238 l -1.11375,-1.855843 c -0.17421,-0.29006 -0.252,-0.324918 -0.16554,-0.444579 l 1.15675,-1.573855 c 0.0677,-0.09434 0.15869,-0.195628 0.2089,-0.291706 l -1.35412,-0.0016 c -0.0595,0.01204 -0.96174,1.372071 -1.08435,1.555557 -0.0357,0.05342 -0.0419,0.06807 -0.076,0.12192 -0.0274,0.04335 -0.004,0.01857 -0.0358,0.05159 -0.0332,0.03477 -0.0155,0.02749 -0.0651,0.04188 v -1.770954 h -1.2707 z"
         style="fill:#ffffff;fill-rule:evenodd;stroke-width:0.867135"
         id="path21" />
      <path
         d="m 112.45246,62.689917 1.30391,0.0021 0.23179,-1.014812 1.33513,-5.3e-4 0.2323,1.007354 1.34016,0.0087 c -0.0384,-0.190768 -0.12096,-0.410155 -0.17637,-0.59676 l -1.23905,-4.066614 c -0.0238,-0.0803 -0.0117,-0.09261 -0.0725,-0.121658 l -1.50119,2.64e-4 z m 1.77243,-1.995887 0.85508,7.94e-4 -0.43609,-1.831653 z"
         style="fill:#ffffff;fill-rule:evenodd;stroke-width:0.867135"
         id="path23" />
      <path
         d="m 128.10791,60.241558 c 0,0.589304 0.0723,1.074118 0.36637,1.537949 0.63942,1.008742 2.03673,1.290992 3.01382,0.702643 0.16449,-0.09903 0.40053,-0.27991 0.47094,-0.406863 l -0.65911,-0.79013 c -0.17707,0.122092 -0.3655,0.403566 -0.87321,0.403566 -1.21607,0 -1.3236,-2.069251 -0.46522,-2.632541 0.31113,-0.204126 0.70161,-0.18869 1.02366,0.01524 0.0977,0.06182 0.1801,0.141169 0.27323,0.1899 0.0569,-0.115761 0.56251,-0.670293 0.64081,-0.809816 -0.0807,-0.134924 -0.44926,-0.355351 -0.60448,-0.431919 -1.32689,-0.654343 -3.18681,0.306099 -3.18681,2.22195 z"
         style="fill:#ffffff;fill-rule:evenodd;stroke-width:0.867135"
         id="path25" />
      <path
         d="m 98.196394,62.677169 c 0.0892,0.02635 2.878026,0.03347 3.081276,0.0069 v -1.047845 l -1.797656,-0.0087 c -0.0403,-0.140999 -0.0142,-3.288093 -0.0142,-3.715681 l -1.2694,-0.0043 z"
         style="fill:#ffffff;fill-rule:evenodd;stroke-width:0.867135"
         id="path27" />
    </g>
  </g>
</svg>
