<?xml version="1.0" encoding="UTF-8" standalone="no"?>
<svg
   version="1.1"
   width="841.88977"
   height="595.27557"
   id="svg61"
   viewBox="0 0 841.88977 595.27557"
   sodipodi:docname="BLACK VIOLET - LOGO VETOR - COREL 22 - CONVERTIDO.svg"
   inkscape:version="1.2 (dc2aedaf03, 2022-05-15)"
   xmlns:inkscape="http://www.inkscape.org/namespaces/inkscape"
   xmlns:sodipodi="http://sodipodi.sourceforge.net/DTD/sodipodi-0.dtd"
   xmlns="http://www.w3.org/2000/svg"
   xmlns:svg="http://www.w3.org/2000/svg">
  <defs
     id="defs65" />
  <sodipodi:namedview
     id="namedview63"
     pagecolor="#ffffff"
     bordercolor="#666666"
     borderopacity="1.0"
     inkscape:pageshadow="2"
     inkscape:pageopacity="0.0"
     inkscape:pagecheckerboard="0"
     inkscape:showpageshadow="0"
     inkscape:deskcolor="#d1d1d1"
     showgrid="false"
     inkscape:zoom="0.98949121"
     inkscape:cx="504.80489"
     inkscape:cy="278.42592"
     inkscape:window-width="1920"
     inkscape:window-height="991"
     inkscape:window-x="370"
     inkscape:window-y="1341"
     inkscape:window-maximized="1"
     inkscape:current-layer="svg61" />
  <path
     d="m 420.22963,579.34925 c 3.13873,0 6.15062,-0.57256 8.66371,-1.2372 l 2.79297,-0.83738 c 3.93251,-1.48727 7.2633,-2.8441 10.89855,-4.94227 4.07803,-2.35381 8.06494,-4.90491 11.82572,-7.72835 l 3.46057,-2.64483 c 1.1202,-0.92029 2.29022,-1.77109 3.38224,-2.72317 l 2.27974,-1.92807 c 0.1655,-0.1334 0.19239,-0.13503 0.36281,-0.29727 0.82556,-0.78656 1.7937,-1.46037 2.59993,-2.26759 1.14839,-1.14971 3.20298,-2.8382 4.4972,-4.08392 l 10.43513,-10.35616 c 0.38346,-0.38312 0.90194,-0.83541 1.22345,-1.25163 0.36869,-0.47751 0.74953,-0.80689 1.17002,-1.22278 l 14.68129,-16.5058 c 0.1337,-0.15796 0.14747,-0.20254 0.29331,-0.36673 0.37953,-0.42573 0.72856,-0.85081 1.08644,-1.30604 l 3.32884,-4.01445 c 2.19944,-2.69891 4.42443,-5.38176 6.53769,-8.14818 l 11.574,-15.2404 c 0.1973,-0.2622 0.3166,-0.4526 0.51816,-0.71971 l 3.61624,-4.96423 c 1.00549,-1.4604 2.07752,-2.81362 3.05222,-4.29073 1.44695,-2.19223 3.06138,-4.26778 4.52243,-6.45084 l 7.44159,-10.95754 c 2.40165,-3.60281 4.94751,-7.40095 7.2433,-11.07258 l 5.18119,-8.18523 c 0.33429,-0.50208 0.61123,-0.99108 0.95731,-1.51774 0.33855,-0.51553 0.63845,-1.01827 0.94487,-1.5302 0.30514,-0.50963 0.625,-0.9806 0.95043,-1.52496 l 3.6995,-6.03592 c 0.3297,-0.50177 0.59156,-0.97502 0.90029,-1.49253 l 8.1885,-13.84062 c 0.64335,-1.06254 1.18215,-2.0631 1.816,-3.13415 0.31593,-0.53455 0.56567,-1.00977 0.86455,-1.52857 1.49972,-2.60518 5.8016,-10.02513 7.03552,-12.51822 0.99895,-2.01886 2.42722,-4.24878 3.43764,-6.29779 l 3.84959,-7.20628 c 0.15994,-0.31495 0.29103,-0.49127 0.44212,-0.79574 0.12946,-0.26088 0.23859,-0.48767 0.38313,-0.77183 0.15961,-0.31494 0.29069,-0.49126 0.44178,-0.79573 l 5.82978,-11.33149 c 0.28939,-0.57911 0.53781,-0.99207 0.82524,-1.56757 0.29103,-0.58304 0.53355,-1.06743 0.82491,-1.65016 l 13.44867,-28.05162 c 0.69972,-1.38633 1.28539,-2.83459 1.92644,-4.26155 l 3.37897,-7.59431 c 0.24874,-0.5683 0.46801,-1.07826 0.722,-1.67081 0.25695,-0.59975 0.51913,-1.15265 0.75379,-1.72127 0.48374,-1.17297 1.01271,-2.32136 1.48498,-3.46549 l 5.71637,-13.83736 c 2.33284,-5.83732 4.66796,-11.70479 6.78448,-17.63715 0.21959,-0.61484 0.43852,-1.14806 0.63942,-1.75338 0.19663,-0.59157 0.45752,-1.19526 0.66104,-1.81437 0.39098,-1.18836 0.8708,-2.35544 1.27817,-3.58968 l 3.73325,-10.95263 c 1.42467,-4.27631 2.86376,-8.64668 4.10064,-12.97805 0.19729,-0.69053 0.37067,-1.2195 0.56567,-1.90939 l 2.18207,-7.63627 c 0.74921,-2.52652 1.39584,-5.12054 2.03951,-7.69623 2.69236,-10.77073 5.01339,-21.46903 6.60881,-32.499 0.34444,-2.38101 0.95175,-6.33582 1.09726,-8.72075 0.0931,-1.52004 0.34019,-2.95652 0.41425,-4.45394 0.0721,-1.4617 0.31497,-3.00633 0.32577,-4.54209 l 0.15569,-2.23681 c 0.042,-0.37298 0.003,-0.84392 0.01,-1.22902 0.006,-0.47653 0.0901,-0.62172 0.0878,-1.14969 l 0.0807,-5.85993 c 0,-15.73365 -2.58879,-31.1612 -8.19276,-45.51869 -0.84524,-2.16534 -1.67276,-4.25893 -2.64253,-6.35054 -0.3166,-0.68203 -0.67253,-1.3575 -0.96192,-2.00805 -0.31921,-0.71806 -0.6109,-1.30111 -0.96354,-2.00673 -0.18157,-0.36314 -0.30971,-0.6286 -0.4939,-0.9914 -0.19238,-0.37886 -0.352,-0.61614 -0.55125,-1.01631 -1.46368,-2.93653 -3.17053,-5.7521 -4.93866,-8.50968 -0.20714,-0.32315 -0.38673,-0.55584 -0.58797,-0.89702 -0.72626,-1.23064 -1.61377,-2.35152 -2.39935,-3.54153 l -1.27522,-1.77731 c -0.43393,-0.57715 -0.80821,-1.14413 -1.26867,-1.70161 -0.45818,-0.55387 -0.84229,-1.12019 -1.28964,-1.6803 -0.98453,-1.23262 -1.92907,-2.52652 -3.0024,-3.68081 l -5.32146,-5.899267 c -1.11299,-1.112985 -2.15881,-2.301354 -3.34094,-3.34225 l -2.68155,-2.598631 c -0.98781,-0.999258 -2.10997,-1.851375 -3.13546,-2.805089 -0.28348,-0.263175 -0.49849,-0.434919 -0.78329,-0.70169 -1.0186,-0.953049 -3.01026,-2.547173 -4.10555,-3.402564 -1.69342,-1.322737 -3.30718,-2.659901 -5.06747,-3.925619 -0.60664,-0.436218 -1.1284,-0.805907 -1.72127,-1.249006 l -4.36578,-3.059746 c -0.33626,-0.223196 -0.59615,-0.397215 -0.9406,-0.626965 -2.95095,-1.967405 -6.92868,-4.548977 -10.12706,-6.291553 -1.61606,-0.880307 -3.16397,-1.879572 -4.8128,-2.695309 l -7.83784,-4.042957 c -2.02703,-0.939292 -3.97643,-2.008372 -6.02608,-2.884414 -3.49269,-1.493165 -6.96899,-3.109886 -10.502,-4.514241 -4.31104,-1.713741 -8.64536,-3.294738 -13.02556,-4.878356 -7.75163,-2.802478 -19.72744,-6.197829 -27.69964,-8.190467 l -7.26068,-1.732416 c -0.84424,-0.191726 -1.63114,-0.370343 -2.43244,-0.537816 -1.63902,-0.342485 -3.2115,-0.708566 -4.89542,-1.045152 -6.70319,-1.340442 -13.4975,-2.644834 -20.2859,-3.640825 -1.75635,-0.257601 -3.475,-0.510614 -5.18808,-0.752156 l -10.62193,-1.341426 c -1.75013,-0.202869 -3.64739,-0.451948 -5.4496,-0.57321 l -5.44273,-0.497504 c -0.8354,-0.06359 -1.85269,-0.22024 -2.72841,-0.242198 -0.39033,-0.0099 -0.95337,-0.04785 -1.39026,-0.09472 -1.6508,-0.177633 -7.37014,-0.576488 -8.42644,-0.566656 l -7.17841,-0.329703 c -1.07464,0.0065 -1.88514,-0.08259 -2.88867,-0.08161 -0.88129,9.83e-4 -3.31865,-0.04589 -5.92711,-0.08225 h -7.4665 c -0.25662,0.01311 -0.45621,0.02949 -0.58467,0.04752 -1.09792,0.166162 -2.73793,-0.01966 -3.85516,0.105203 -0.55455,0.06227 -1.38602,0.0099 -1.97102,0.0099 -0.45326,6.54e-4 -0.5306,0.06555 -0.90423,0.08586 -0.30807,0.01638 -0.67645,6.55e-4 -0.99075,-6.56e-4 -1.83204,-0.0065 -4.57323,0.226794 -6.51737,0.330686 l -2.80968,0.160263 c -1.22836,0.09997 -2.51046,0.107168 -3.72079,0.239576 -0.64532,0.07079 -1.2277,0.03769 -1.87302,0.107168 -0.51126,0.05473 -1.2667,0.144532 -1.82811,0.152071 -0.957,0.01311 -2.60517,0.217616 -3.55987,0.317904 l -3.63165,0.328719 c -1.85008,0.196971 -3.53202,0.302173 -5.38407,0.556169 -1.23392,0.169113 -2.32987,0.232694 -3.56019,0.400166 -4.66501,0.635809 -9.20842,1.150029 -13.85966,1.898906 -5.68228,0.915369 -11.10929,1.804518 -16.70931,2.927344 l -6.55867,1.361745 c -1.10448,0.245803 -2.15422,0.452277 -3.23673,0.723642 l -6.3358,1.502345 c -2.15389,0.538143 -4.21371,1.069404 -6.30303,1.617379 -3.81715,1.001564 -8.5631,2.269576 -12.30455,3.536606 l -5.94022,1.897923 c -5.83928,1.945777 -11.57434,4.098998 -17.29203,6.387261 -2.64582,1.058581 -5.71016,2.325285 -8.24585,3.552333 -1.32111,0.639084 -2.70252,1.178539 -4.01674,1.840894 -0.45392,0.229094 -0.85573,0.459166 -1.32701,0.653514 -2.26302,0.934049 -6.59931,3.340613 -9.12418,4.654181 l -1.27163,0.708566 c -0.43949,0.262518 -0.85637,0.453589 -1.28144,0.698734 -0.40935,0.236304 -0.83278,0.467686 -1.2572,0.722984 l -12.16231,7.556302 c -0.42277,0.280868 -0.74856,0.528635 -1.17132,0.809183 -3.72702,2.473102 -7.18563,5.292604 -10.69568,8.033149 l -1.62623,1.343723 c -0.21074,0.170412 -0.28842,0.2707 -0.53028,0.4598 l -7.7287,7.039793 -2.43475,2.516034 c -0.45358,0.514866 -1.05039,0.956011 -1.47022,1.499719 -0.71578,0.927167 -2.7579,2.927347 -3.69983,4.138337 -0.29266,0.3759 -0.62695,0.68365 -0.92061,1.05957 -1.44826,1.85367 -2.94897,3.62967 -4.37233,5.52859 l -3.2695,4.56831 c -1.83532,2.76086 -3.67786,5.5866 -5.26377,8.5146 -0.22319,0.41229 -0.4536,0.84786 -0.70759,1.2726 -0.14486,0.24187 -0.20253,0.40803 -0.33855,0.65154 -1.80943,3.23739 -3.318,6.56195 -4.76398,10.00449 -0.98386,2.342 -1.80878,4.74136 -2.69989,7.11844 -0.17436,0.46474 -0.33854,0.93405 -0.5152,1.46497 l -0.9406,3.01945 c -2.09228,7.50352 -3.00863,11.76246 -4.12818,19.55112 -0.32937,2.29121 -0.5673,4.80297 -0.75247,7.16793 -0.0528,0.67284 -0.0375,1.21295 -0.0914,1.88875 -0.0397,0.49226 -0.0755,1.38468 -0.13797,1.8422 -0.10391,0.75642 -0.18714,6.82544 -0.18779,7.65036 v 0.035 c 0.002,0.73118 0.0875,1.19361 0.0835,1.86154 -0.003,0.66071 0.001,1.32176 -0.002,1.98248 -0.003,0.68169 0.0868,1.14184 0.0835,1.89661 l 0.18778,3.77257 c 0.15109,1.10513 0.17796,2.47638 0.29496,3.58282 l 0.93536,8.96556 c 0.99239,8.10034 2.52849,15.62321 4.10229,23.45446 0.21794,1.0835 0.51323,2.20239 0.72986,3.23051 0.22909,1.08842 0.4903,2.19387 0.74626,3.21379 1.05203,4.18847 2.00443,8.41168 3.20526,12.55361 0.59977,2.06868 1.14119,4.04526 1.7262,6.11196 1.10577,3.90859 2.38493,8.22062 3.67654,12.08201 l 1.93823,5.98218 c 1.32406,3.96986 2.59961,7.87747 4.06196,11.77885 l 2.08507,5.75309 c 0.69414,1.93201 1.44335,3.84041 2.14438,5.77635 l 10.14083,25.25407 3.57396,8.30747 c 0.2091,0.4703 0.3592,0.85474 0.57682,1.32045 l 1.21131,2.74906 c 0.20484,0.45555 0.4041,0.87079 0.61124,1.36896 l 4.31104,9.46732 c 0.1324,0.26283 0.1773,0.42147 0.3012,0.6889 l 1.57541,3.37471 c 0.55553,1.34667 1.30702,2.61336 1.88679,3.9715 l 13.06685,26.45293 c 1.30473,2.6101 2.74676,5.13924 4.04263,7.75622 l 3.76702,7.04109 c 0.13501,0.24121 0.19828,0.41361 0.33067,0.65941 l 17.77874,31.47746 14.99754,24.52255 c 0.27858,0.42508 0.51094,0.80264 0.77739,1.2028 1.8396,2.76347 3.54547,5.62134 5.39455,8.38382 l 20.48878,29.75751 c 0.15928,0.21302 0.25039,0.36509 0.41131,0.57877 0.57486,0.76363 1.06154,1.47088 1.63869,2.2391 l 19.8251,25.55296 c 0.15896,0.19632 0.2776,0.32545 0.45032,0.54012 0.16452,0.20418 0.27529,0.34903 0.44768,0.54207 l 2.2604,2.69007 c 0.18026,0.22319 0.27825,0.31824 0.45883,0.53125 l 3.59691,4.24124 c 0.30185,0.35888 0.63941,0.67973 0.94125,1.03893 l 7.46224,8.29633 c 0.73381,0.91962 1.62721,1.67178 2.40035,2.54978 l 1.44466,1.52595 c 0.3664,0.36542 0.58699,0.67317 0.94848,1.03139 0.35165,0.34838 0.64005,0.63973 0.99041,0.98977 l 12.0027,11.594 c 0.21499,0.20746 0.32544,0.24286 0.53945,0.45063 0.22385,0.2173 0.26023,0.2681 0.52078,0.46933 0.22908,0.17698 0.30709,0.3012 0.50962,0.48014 3.68082,3.25212 7.50517,6.31777 11.44129,9.26806 1.52005,1.13919 3.0155,2.17912 4.60142,3.2364 l 3.61394,2.32659 c 0.37756,0.24974 0.83378,0.52472 1.23755,0.74266 1.03631,0.55944 2.05163,1.22607 3.10661,1.76126 l 1.29324,0.68694 c 0.2445,0.13142 0.41165,0.20483 0.66039,0.32937 1.7947,0.89865 3.62707,1.72881 5.50991,2.41083 4.30712,1.55936 8.29894,2.73234 13.10915,2.73234 z"
     style="fill:#131510;fill-rule:evenodd;stroke-width:3.27736"
     id="path2" />
  <path
     d="m 404.00994,399.18655 c -0.28545,0.76789 -1.7606,6.53507 -2.09653,7.8116 -0.6948,2.63861 -1.39878,5.19758 -2.07981,7.82045 -1.36241,5.24771 -2.8464,10.44497 -4.17439,15.70645 -1.95134,7.72967 -4.20452,15.76052 -6.25354,23.52591 -0.35101,1.33094 -0.69414,2.6042 -1.03892,3.91318 -0.19141,0.72529 -1.01074,3.4042 -1.00583,3.92792 2.44787,0.0734 5.12645,-0.0669 7.62185,-0.078 2.54978,-0.0131 5.11171,-0.0554 7.67558,-0.0593 2.53243,-0.003 5.11893,-0.0773 7.67035,-0.0838 1.05695,-0.002 7.19841,-0.11737 7.63331,-0.0164 l 0.82525,56.6011 c 0.50864,-0.84459 7.98202,-18.15399 8.52737,-19.35712 2.91522,-6.43247 5.58988,-12.99605 8.51854,-19.45116 0.71741,-1.58166 1.43712,-3.19544 2.11356,-4.81543 0.69022,-1.65179 1.43746,-3.23247 2.13226,-4.88361 2.01918,-4.80003 4.39035,-9.80948 6.40889,-14.62983 1.34568,-3.21477 2.86998,-6.49443 4.27696,-9.7459 l 2.11292,-4.87673 -23.43709,0.13209 17.92915,-49.56394 z"
     style="fill:#ffffff;fill-rule:evenodd;stroke-width:3.27736"
     id="path4" />
  <g
     id="Layer1000"
     transform="matrix(3.2773657,0,0,3.2773657,-959.31159,-670.20574)">
    <path
       d="m 398.5765,277.071 c 0,0.997 0.3707,2.9383 0.5424,4.0157 0.6021,3.7803 1.1872,7.5856 1.8044,11.356 0.2059,1.2582 0.4195,2.5181 0.6001,3.7837 0.3478,2.4365 1.5184,4.0024 3.6598,5.1255 0.9044,0.4742 2.2399,0.9608 3.4363,0.9608 h 0.5035 c 2.451,0 4.4452,-0.6942 5.9542,-1.8669 1.3759,-1.0694 2.6791,-2.6506 2.6791,-5.2995 0,-1.0193 -0.0887,-2.0534 -0.1325,-3.0692 -0.2216,-5.1383 -0.3844,-10.2944 -0.581,-15.4351 -0.0688,-1.8012 -0.4526,-2.801 -1.5563,-4.0464 -0.3465,-0.391 -0.8758,-0.7772 -1.3263,-1.0645 -0.9625,-0.614 -2.3592,-1.0868 -3.5168,-1.2909 -2.5503,-0.4497 -5.7715,0.0277 -8.0025,1.2812 -0.3464,0.1947 -0.6727,0.3887 -0.9748,0.6105 -0.1669,0.1226 -0.2975,0.2166 -0.4591,0.3458 -0.7424,0.5939 -1.4171,1.2689 -1.8893,2.113 -0.3645,0.6515 -0.7412,1.5737 -0.7412,2.4803 z m 5.4916,-2.5427 c 0,0.8114 0.0774,1.2516 0.1852,2.0519 0.0804,0.5967 0.1544,1.1827 0.2267,1.7878 l 2.1818,18.0066 c 0.1383,1.151 0.2057,2.3806 0.7315,3.2952 0.4996,0.8691 1.2263,1.5836 2.5857,1.5836 0.4556,0 0.9004,-0.11 1.2775,-0.2726 1.1555,-0.4984 1.6191,-1.7847 1.6191,-3.0906 0,-0.8728 -0.1187,-1.8167 -0.185,-2.6932 -0.0675,-0.8919 -0.1307,-1.7955 -0.196,-2.6932 -0.1292,-1.7767 -0.2846,-3.5659 -0.4123,-5.3434 l -0.707,-9.3871 c -0.0334,-0.423 -0.0485,-0.9466 -0.1127,-1.35 -0.2084,0.0943 -0.4289,0.3051 -0.8974,0.454 -0.9577,0.3043 -2.0221,0.257 -2.9792,-0.0588 -0.2238,-0.0738 -0.4389,-0.2171 -0.565,-0.365 -0.0876,-0.1026 -0.3372,-0.4601 -0.2476,-0.6498 0.0403,-0.0384 0.7472,0.0739 1.0392,0.0739 1.3779,0 3.0795,-0.8891 3.0795,-2.5828 0,-0.7461 -0.4671,-1.1658 -0.8487,-1.4509 -0.6475,-0.4838 -1.1175,-0.6082 -1.9791,-0.6082 -0.7632,0 -1.4763,0.1675 -2.1261,0.5115 -0.9875,0.5227 -1.6701,1.646 -1.6701,2.7811 z"
       style="fill:#9e74fd;fill-rule:evenodd"
       id="path6" />
    <path
       d="m 442.395,270.9937 c -0.055,0.1173 0.1729,0.5389 0.2267,0.6999 0.5197,1.5568 0.4077,3.2998 0.1914,4.9053 -0.0793,0.5889 -0.1565,1.1692 -0.2309,1.7587 l -1.3564,10.572 c -0.3086,2.3462 -0.5695,4.6992 -0.8961,7.0387 -0.2877,2.0614 -0.5097,4.072 -1.571,5.879 -0.065,0.1107 -0.1466,0.2164 -0.1934,0.3328 1.2668,0.2233 2.603,0.3562 3.8829,0.5471 2.3953,0.3573 5.1343,0.8541 7.4979,1.367 0.6021,0.1306 1.2099,0.2585 1.8138,0.4 0.2911,0.0681 1.6504,0.4221 1.8464,0.3879 0.117,-0.0643 0.157,-0.5729 0.1795,-0.718 l 0.3896,-2.4068 c 0.0856,-0.5283 0.1743,-1.0514 0.2619,-1.5785 0.022,-0.132 0.0443,-0.2545 0.0624,-0.388 0.0245,-0.1798 0.0273,-0.2743 -0.1194,-0.3325 -0.0505,-0.02 -0.6947,-0.1952 -0.7324,-0.1987 -0.2525,-0.0232 -0.3629,0.2486 -0.4577,0.4283 -0.356,0.6748 -0.5587,1.145 -1.0283,1.7672 -0.522,0.6919 -1.2761,1.3458 -2.5331,1.3458 -0.4983,0 -2.5921,-0.4205 -3.103,-0.5731 -0.8963,-0.2677 -1.7506,-0.9108 -1.7506,-1.9963 0,-0.2225 0.6075,-3.7836 0.6589,-4.0914 0.2293,-1.3744 0.4528,-2.7367 0.6813,-4.1071 l 1.0265,-6.1459 c 0.0681,-0.4085 0.2643,-1.7328 0.3606,-2.0273 0.2081,-0.0279 2.1579,0.8867 2.5099,1.0333 1.0732,0.4469 1.5931,0.8615 2.9142,0.8615 0.7574,0 1.0709,-0.2701 1.3621,-0.7246 0.1805,-0.2818 0.5923,-1.1507 0.4808,-1.5732 -0.1533,-0.0604 -1.5333,-0.1128 -1.8443,-0.1392 -0.9799,-0.0831 -4.6651,-0.495 -5.186,-0.7973 -0.03,-0.1992 0.379,-2.4627 0.4423,-2.8688 0.1025,-0.6583 0.9805,-6.0881 1.0508,-6.3494 0.0779,-0.2894 0.3515,-0.1708 0.5932,-0.1278 1.9102,0.3398 5.2117,0.8122 6.5666,1.689 1.0679,0.6911 1.2412,1.5598 1.3513,2.7782 0.0595,0.6594 0.0185,0.3869 0.9776,0.6834 0.3414,0.1055 0.3702,-0.0577 0.4616,-0.3097 0.0912,-0.2516 1.2967,-3.5453 1.3002,-3.6397 0.009,-0.2483 -0.3314,-0.2534 -0.5343,-0.2967 -2.0654,-0.4403 -4.0082,-0.8913 -6.1322,-1.3217 -1.8621,-0.3774 -3.7408,-0.6551 -5.6207,-0.9762 -0.6434,-0.1099 -5.5537,-0.8782 -5.8006,-0.7872 z"
       style="fill:#9e74fd;fill-rule:evenodd"
       id="path8" />
    <path
       d="m 382.2198,303.7021 c -0.1287,-0.0402 -0.1186,-0.1182 -0.2446,-0.34 -0.0738,-0.1299 -0.1417,-0.2656 -0.2142,-0.3906 l -1.2668,-2.2822 c -0.4767,-0.927 -1.1833,-2.0915 -1.7019,-3.0559 l -1.7262,-3.0315 c -0.5824,-0.9778 -1.159,-2.0501 -1.753,-3.0048 -0.5667,-0.9107 -1.1965,-2.0081 -1.7717,-2.9612 l -2.7154,-4.409 c -0.3092,-0.4975 -0.6282,-0.9689 -0.9125,-1.4795 -0.6439,-1.1564 -1.065,-2.218 -0.6516,-3.7532 -0.1282,0.0206 -0.3652,0.1208 -0.4928,0.1675 -1.157,0.4229 -2.4247,0.8523 -3.5493,1.3097 -0.6564,0.267 -1.3359,0.5189 -1.989,0.7801 l -1.4876,0.602 c -0.1512,0.06 -0.3556,0.1343 -0.4938,0.2086 0.0622,0.065 0.3066,0.1944 0.4062,0.2576 0.473,0.3 0.7802,0.5417 1.1993,0.8921 0.066,0.0552 0.0976,0.108 0.1614,0.1646 0.0712,0.0632 0.1136,0.1058 0.1804,0.1724 0.1086,0.1083 0.2418,0.2418 0.3396,0.366 0.0526,0.0668 0.1078,0.1205 0.163,0.1893 0.4758,0.5921 0.8564,1.1911 1.3054,1.8162 l 1.419,2.0808 c 0.366,0.5559 0.7442,1.0973 1.1148,1.6532 l 1.6584,2.5215 c 0.1729,0.2721 0.3581,0.572 0.5461,0.8384 0.1892,0.2682 0.3628,0.5628 0.5428,0.8423 l 0.8222,1.2659 c 0.2745,0.416 0.5318,0.861 0.8157,1.2747 0.495,0.7211 1.1109,1.7726 1.6148,2.564 0.4062,0.6381 1.2289,1.9553 1.5896,2.5893 0.1651,0.2903 0.3473,0.5705 0.5229,0.8614 0.1765,0.2924 0.3441,0.5728 0.5198,0.8655 0.3485,0.5802 0.7001,1.1622 1.0448,1.7495 0.3458,0.5891 0.691,1.1544 1.0414,1.7523 0.238,0.4059 0.2972,0.486 0.3358,1.0535 0.0497,0.7292 -0.0742,1.0565 -0.0653,1.2688 2.0945,-0.7571 4.3147,-1.5293 6.5222,-2.1834 -0.047,-0.0808 -0.1657,-0.1916 -0.2489,-0.2636 -0.1925,-0.1668 -0.5712,-0.6975 -0.7304,-0.9309 -0.205,-0.3007 -0.2203,-0.4148 -0.2568,-0.8514 l -0.4275,-5.1194 c -0.2187,-2.7611 -0.3651,-5.535 -0.5173,-8.3068 -0.1953,-3.5572 -0.2898,-7.1352 -0.357,-10.6995 -0.0137,-0.7302 0.008,-1.4647 -0.0177,-2.1901 -0.0466,-1.2936 -0.1211,-1.6603 0.3008,-2.915 0.0886,-0.2636 0.2379,-0.5754 0.3012,-0.8143 -0.1647,-0.0232 -2.0496,0.5035 -2.4905,0.6125 -0.8686,0.2148 -0.0473,0.4164 0.1636,2.2463 0.0736,0.6387 0.0166,1.4145 0.0358,2.0789 0.0784,2.7174 0.149,5.4499 0.2978,8.1566 0.1464,2.6621 0.2541,5.3224 0.4622,7.9806 l 0.4837,5.8415 c 0.0577,0.6193 0.1551,1.346 0.1711,1.9587 z"
       style="fill:#9e74fd;fill-rule:evenodd"
       id="path10" />
    <path
       d="m 467.981,277.7558 c 0.9518,0 1.6029,0.1347 2.5049,0.3843 0.1793,0.0496 0.3379,0.0941 0.5111,0.143 0.5472,0.1543 0.4878,0.114 0.0951,1.2935 -0.2207,0.6628 -0.4406,1.3327 -0.6387,2.0051 -0.2001,0.679 -0.4328,1.3447 -0.6407,2.0275 -0.204,0.6698 -0.4122,1.3447 -0.6387,2.0054 -0.2279,0.6645 -0.4142,1.3578 -0.6393,2.0281 -0.2225,0.6628 -0.4419,1.3349 -0.64,2.0044 -0.3843,1.2986 -0.8887,2.7235 -1.2805,4.031 -0.201,0.6707 -0.4273,1.3585 -0.6507,2.0183 -0.4491,1.3268 -0.8335,2.716 -1.2638,4.0474 -0.4346,1.3445 -0.8534,2.6786 -1.3434,3.9684 -0.2459,0.6471 -0.5256,1.2577 -0.856,1.8124 -0.1783,0.2994 -0.3491,0.5381 -0.5405,0.7943 l -0.2948,0.3605 c -0.0896,0.0977 -0.285,0.2308 -0.2967,0.3712 0.1069,0.076 1.3786,0.4601 1.6227,0.5366 1.2573,0.3942 2.7946,0.9221 4.032,1.3808 0.2108,0.0782 0.6117,0.2361 0.8154,0.2777 -0.0981,-0.5565 -0.1041,-0.4458 -0.1041,-1.0087 0,-1.8959 0.8038,-3.84 1.4069,-5.5606 l 4.3141,-11.9993 c 0.4019,-1.1453 0.8263,-2.2826 1.2345,-3.4231 l 2.3085,-6.4263 c 0.053,-0.1492 0.0801,-0.3351 0.1965,-0.4193 0.202,-0.004 1.1647,0.4229 1.3995,0.5233 1.2088,0.5169 2.7995,1.4364 2.7995,3.0119 0,1.6915 -0.2173,1.4514 0.4608,1.7086 0.8052,0.3056 0.5871,0.5052 1.185,-0.5967 0.188,-0.3464 1.5601,-2.7562 1.5865,-2.8682 0.049,-0.2074 -0.2143,-0.2472 -0.3788,-0.3109 l -1.5957,-0.6451 c -2.8672,-1.1404 -5.7245,-2.1895 -8.7194,-3.1879 -2.9815,-0.9938 -6.0551,-1.9237 -9.1587,-2.7497 -0.3216,-0.0856 -0.3157,0.01 -0.3554,0.3049 l -0.2793,1.9568 c -0.0645,0.437 -0.1281,0.8584 -0.195,1.2944 -0.0215,0.1399 -0.0962,0.5129 -0.0885,0.6369 0.008,0.1346 0.0653,0.1443 0.1938,0.1821 1.0384,0.3057 0.9645,0.3526 1.2784,-0.09 0.4278,-0.6031 0.7792,-1.2247 1.4245,-1.5466 0.3315,-0.1653 0.8138,-0.2764 1.229,-0.2764 z"
       style="fill:#9e74fd;fill-rule:evenodd"
       id="path12" />
    <path
       d="m 422.0206,295.6497 c 0,1.392 -0.0699,3.117 -0.4939,4.4476 -0.0637,0.1998 -0.1213,0.3924 -0.1945,0.5861 -0.0657,0.1737 -0.1883,0.4168 -0.2346,0.5803 l 3.3323,0.005 c 3.0337,6e-4 7.3243,0.2262 10.4443,0.5305 0.2425,0.0236 1.2947,0.1648 1.4459,0.1039 0.1026,-0.0662 0.0778,-0.4452 0.0809,-0.5518 0.006,-0.2065 0.014,-0.4265 0.0198,-0.6256 0.0356,-1.2229 0.1156,-2.6121 0.1156,-3.7922 0,-0.2188 -0.004,-0.3805 -0.1956,-0.4569 -0.1181,-0.047 -0.494,-0.0836 -0.6335,-0.0836 -0.3205,0 -0.3761,0.2638 -0.4734,0.5197 -0.2603,0.6847 -0.5531,1.4696 -0.9426,2.0539 -0.4707,0.7062 -1.2678,1.4492 -2.5616,1.4492 l -2.4642,-0.1391 c -0.8818,-0.1017 -1.795,-0.4681 -2.159,-1.3142 -0.1523,-0.354 -0.1667,-0.5854 -0.1499,-0.9974 l 0.2217,-6.772 c 0.0424,-1.502 0.1038,-3.0089 0.1447,-4.5056 0.0823,-3.0128 0.1939,-6.0139 0.2696,-9.012 0.0573,-2.2645 -0.073,-5.4974 1.2354,-7.4834 0.0869,-0.1319 0.1621,-0.2394 0.2401,-0.3698 l -8.4304,0.008 c 0.0549,0.1324 0.3429,0.5263 0.5707,1.0971 0.1629,0.4084 0.2794,0.8699 0.3799,1.3307 0.2381,1.092 0.2507,1.967 0.2887,3.1009 0.0372,1.1103 0.0297,2.2623 0.0295,3.3734 -10e-4,5.6353 0.1141,11.2921 0.1141,16.9172 z"
       style="fill:#9e74fd;fill-rule:evenodd"
       id="path14" />
    <path
       d="m 385.3246,274.2514 c 0.0351,0.0519 0.0103,0.0195 0.0629,0.072 0.031,0.0309 0.0468,0.0424 0.0773,0.0734 l 0.4176,0.4891 c 0.5143,0.6425 0.9641,1.5567 1.246,2.3538 0.4275,1.2084 0.7181,2.4796 1.0035,3.7798 0.2844,1.2953 0.6028,2.5889 0.9007,3.8822 l 2.7065,11.6688 c 0.5174,2.2569 1.3113,4.8847 1.0894,7.2274 -0.0359,0.3797 -0.1118,0.6867 -0.168,1.044 1.6749,-0.3691 3.2427,-0.7404 4.9381,-1.0795 l 1.678,-0.3338 -0.4597,-0.6957 c -0.1381,-0.2461 -0.2893,-0.4906 -0.4119,-0.7712 -0.8395,-1.9221 -1.0663,-3.526 -1.4609,-5.6138 -0.4978,-2.6339 -1.039,-5.2545 -1.525,-7.8892 -0.4854,-2.6315 -0.9945,-5.2551 -1.5332,-7.8831 -0.2686,-1.3101 -0.5069,-2.6501 -0.7117,-3.9946 -0.1764,-1.1575 -0.158,-2.0757 0.0949,-3.2045 0.0841,-0.3755 0.1738,-0.5632 0.308,-0.8857 -0.8802,0.0918 -8.0214,1.6317 -8.2525,1.7606 z"
       style="fill:#9e74fd;fill-rule:evenodd"
       id="path16" />
  </g>
  <path
     d="m 303.54754,194.64256 h 7.43897 c 3.02664,0 5.51121,-1.20345 6.39905,-3.36028 0.50439,-1.22541 0.49587,-2.88081 -0.0712,-4.05378 -0.56272,-1.16346 -1.37779,-1.65572 -2.674,-2.1778 0.17666,-0.25466 2.26729,-1.05761 2.26729,-4.12261 0,-3.37012 -3.19739,-4.36972 -6.49377,-4.36972 h -6.8687 z m 4.80069,-11.02834 h 1.73568 c 1.22017,0 2.08343,-0.53683 2.14045,-1.69866 0.0642,-1.3116 -0.90782,-1.67178 -2.14045,-1.67178 h -1.73568 z m -10e-4,7.34294 c 1.9969,0 4.66074,0.36248 4.71186,-1.94316 0.0229,-1.09496 -0.54763,-1.57345 -1.53315,-1.77173 -0.89078,-0.17927 -2.20468,-0.10784 -3.15577,-0.10784 z"
     style="fill:#ffffff;fill-rule:evenodd;stroke-width:3.27736"
     id="path19" />
  <path
     d="m 534.09088,194.64256 h 4.80036 l 3.2e-4,-4.30875 c 0,-0.32118 1.58363,-2.45541 1.71406,-2.55504 0.24975,0.23007 2.51341,4.26876 3.01649,5.14842 l 0.75019,1.3116 c 0.0131,0.0262 0.12093,0.2068 0.1216,0.20778 0.15075,0.18878 0.15075,0.19599 0.40212,0.19599 l 4.92653,-0.0164 c -0.39622,-0.76657 -0.90356,-1.53347 -1.37254,-2.31775 l -4.20945,-7.01421 c -0.65842,-1.09629 -0.95241,-1.22804 -0.62566,-1.6803 l 4.372,-5.94843 c 0.25565,-0.35658 0.59976,-0.73938 0.78953,-1.10251 l -5.11794,-0.006 c -0.22482,0.0455 -3.63492,5.18578 -4.09834,5.87927 -0.13503,0.2019 -0.1583,0.25727 -0.2871,0.4608 -0.10358,0.16386 -0.0164,0.0702 -0.13536,0.195 -0.12552,0.13142 -0.0586,0.10391 -0.24613,0.1583 v -6.69337 h -4.80265 z"
     style="fill:#ffffff;fill-rule:evenodd;stroke-width:3.27736"
     id="path21" />
  <path
     d="m 416.15488,194.63699 4.92817,0.008 0.87604,-3.83551 5.04616,-0.002 0.87801,3.80732 5.06516,0.0327 c -0.14518,-0.72101 -0.45719,-1.55019 -0.66661,-2.25547 l -4.68303,-15.36988 c -0.0898,-0.30348 -0.044,-0.35001 -0.27398,-0.45981 l -5.67379,0.001 z m 6.69894,-7.54351 3.2318,0.003 -1.64819,-6.92278 z"
     style="fill:#ffffff;fill-rule:evenodd;stroke-width:3.27736"
     id="path23" />
  <path
     d="m 475.32509,185.38335 c 0,2.22729 0.27333,4.05966 1.38469,5.81272 2.41673,3.81257 7.69788,4.87934 11.39082,2.65566 0.62171,-0.37428 1.51381,-1.05793 1.77993,-1.53775 l -2.49112,-2.98632 c -0.66925,0.46145 -1.38142,1.52529 -3.30032,1.52529 -4.59617,0 -5.00257,-7.82079 -1.7583,-9.94976 1.17592,-0.7715 2.65173,-0.71316 3.86893,0.0576 0.36935,0.23366 0.6807,0.53355 1.0327,0.71773 0.21499,-0.43752 2.12603,-2.53339 2.42196,-3.06072 -0.30511,-0.50995 -1.69799,-1.34306 -2.28465,-1.63245 -5.01501,-2.47311 -12.04464,1.15691 -12.04464,8.39792 z"
     style="fill:#ffffff;fill-rule:evenodd;stroke-width:3.27736"
     id="path25" />
  <path
     d="m 362.27368,194.58881 c 0.33724,0.0996 10.87757,0.12651 11.64578,0.0262 v -3.96036 l -6.7943,-0.0327 c -0.15241,-0.53291 -0.0538,-12.42744 -0.0538,-14.04352 l -4.79774,-0.0163 z"
     style="fill:#ffffff;fill-rule:evenodd;stroke-width:3.27736"
     id="path27" />
</svg>
